<svg width="17" height="20" viewBox="0 0 17 20" fill="none" xmlns="http://www.w3.org/2000/svg">
<path d="M16.19 8.22001C16.04 8.23001 15.89 8.24001 15.74 8.24001C14.09 8.24001 12.56 7.41001 11.66 6.03001V13.54C11.66 16.61 9.17 19.09 6.11 19.09C3.04 19.09 0.559998 16.6 0.559998 13.54C0.559998 10.47 3.05 7.99001 6.11 7.99001C6.23 7.99001 6.34 8.00001 6.45 8.01001V10.75C6.34 10.74 6.22 10.72 6.11 10.72C4.54 10.72 3.28 11.99 3.28 13.55C3.28 15.11 4.55 16.38 6.11 16.38C7.68 16.38 9.06 15.15 9.06 13.58L9.09 0.820007H11.71C11.96 3.17001 13.85 5.00001 16.2 5.17001L16.19 8.22001Z" fill="white"/>
</svg>
