<svg width="20" height="20" viewBox="0 0 20 20" fill="none" xmlns="http://www.w3.org/2000/svg">
<path d="M0.26001 19.54L1.63002 14.42C0.85002 13.02 0.440018 11.45 0.440018 9.85C0.440018 4.64 4.68001 0.400002 9.89001 0.400002C15.1 0.400002 19.34 4.64 19.34 9.85C19.34 15.06 15.1 19.3 9.89001 19.3C8.33002 19.3 6.78001 18.9 5.40001 18.15L0.26001 19.54ZM5.66002 16.24L5.98001 16.43C7.17001 17.14 8.52001 17.51 9.89001 17.51C14.12 17.51 17.56 14.07 17.56 9.84C17.56 5.61 14.12 2.17 9.89001 2.17C5.66001 2.17 2.22002 5.61 2.22002 9.84C2.22002 11.24 2.61001 12.61 3.34001 13.81L3.54001 14.14L2.77002 17L5.66002 16.24Z" fill="black"/>
<path fill-rule="evenodd" clip-rule="evenodd" d="M13.42 11.16C13.03 10.93 12.52 10.67 12.07 10.86C11.72 11 11.49 11.55 11.27 11.84C11.15 11.98 11.01 12.01 10.83 11.93C9.51003 11.4 8.50003 10.52 7.77003 9.31C7.65003 9.12 7.67004 8.97 7.82004 8.8C8.04004 8.54 8.32004 8.25 8.38004 7.9C8.44004 7.55 8.28004 7.14 8.13004 6.83C7.95004 6.43 7.74003 5.87 7.34003 5.64C6.97003 5.43 6.49003 5.55 6.17003 5.81C5.61003 6.27 5.34003 6.99 5.34003 7.7C5.34003 7.9 5.37003 8.1 5.41003 8.3C5.52003 8.77 5.74003 9.21 5.98003 9.62C6.16003 9.93 6.36003 10.24 6.58003 10.53C7.29003 11.49 8.16002 12.32 9.18002 12.95C9.69002 13.26 10.24 13.53 10.8 13.72C11.44 13.93 12 14.15 12.69 14.02C13.41 13.88 14.12 13.44 14.4 12.75C14.48 12.54 14.53 12.32 14.48 12.1C14.39 11.65 13.78 11.38 13.42 11.16Z" fill="black"/>
</svg>
