<svg width="21" height="20" viewBox="0 0 21 20" fill="none" xmlns="http://www.w3.org/2000/svg">
<path d="M15.58 3.56C14.93 3.56 14.41 4.08 14.41 4.73C14.41 5.38 14.93 5.9 15.58 5.9C16.23 5.9 16.75 5.38 16.75 4.73C16.74 4.08 16.22 3.56 15.58 3.56Z" fill="black"/>
<path d="M10.38 5.06C7.67003 5.06 5.47003 7.26 5.47003 9.97C5.47003 12.68 7.67003 14.88 10.38 14.88C13.09 14.88 15.29 12.68 15.29 9.97C15.29 7.26 13.09 5.06 10.38 5.06ZM10.38 13.11C8.65003 13.11 7.24003 11.7 7.24003 9.97C7.24003 8.24 8.65003 6.83 10.38 6.83C12.11 6.83 13.52 8.24 13.52 9.97C13.52 11.7 12.11 13.11 10.38 13.11Z" fill="black"/>
<path d="M14.28 19.93H6.32001C3.02002 19.93 0.330017 17.24 0.330017 13.94V5.99C0.330017 2.69 3.02002 0 6.32001 0H14.28C17.58 0 20.27 2.69 20.27 5.99V13.95C20.27 17.25 17.58 19.93 14.28 19.93ZM6.32001 1.88C4.05001 1.88 2.21001 3.72 2.21001 5.99V13.95C2.21001 16.22 4.05001 18.06 6.32001 18.06H14.28C16.55 18.06 18.39 16.22 18.39 13.95V5.99C18.39 3.72 16.55 1.88 14.28 1.88H6.32001Z" fill="black"/>
</svg>
